<svg width="72" height="72" viewBox="0 0 72 72" fill="none" xmlns="http://www.w3.org/2000/svg">
<g clip-path="url(#clip0_18_870)">
<path fill-rule="evenodd" clip-rule="evenodd" d="M-108 -15C-103.029 -15 -99 -10.9706 -99 -6C-99 2.28427 -92.2843 9 -84 9C-79.0294 9 -75 13.0294 -75 18C-75 26.2843 -68.2843 33 -60 33C-55.0294 33 -51 37.0294 -51 42C-51 50.2843 -44.2843 57 -36 57C-31.0294 57 -27 61.0294 -27 66C-27 74.2843 -20.2843 81 -12 81H18V78V75C13.0294 75 9 70.9706 9 66C9 57.7157 2.28427 51 -6 51C-10.9706 51 -15 46.9706 -15 42C-15 33.7157 -21.7157 27 -30 27C-34.9706 27 -39 22.9706 -39 18C-39 9.71573 -45.7157 3 -54 3C-58.9706 3 -63 -1.02944 -63 -6C-63 -14.2843 -69.7157 -21 -78 -21H-108V-18V-15ZM-27 -6C-27 -10.9706 -31.0294 -15 -36 -15V-18V-21H-6C2.28427 -21 9 -14.2843 9 -6C9 -1.02944 13.0294 3 18 3C26.2843 3 33 9.71573 33 18C33 22.9706 37.0294 27 42 27C50.2843 27 57 33.7157 57 42C57 46.9706 61.0294 51 66 51C74.2843 51 81 57.7157 81 66C81 70.9706 85.0294 75 90 75V78V81H60C51.7157 81 45 74.2843 45 66C45 61.0294 40.9706 57 36 57C27.7157 57 21 50.2843 21 42C21 37.0294 16.9706 33 12 33C3.71573 33 -3 26.2843 -3 18C-3 13.0294 -7.02943 9 -12 9C-20.2843 9 -27 2.28427 -27 -6ZM45 -6C45 -10.9706 40.9706 -15 36 -15V-18V-21H66C74.2843 -21 81 -14.2843 81 -6C81 -1.02944 85.0294 3 90 3C98.2843 3 105 9.71573 105 18C105 22.9706 109.029 27 114 27C122.284 27 129 33.7157 129 42C129 46.9706 133.029 51 138 51C146.284 51 153 57.7157 153 66C153 70.9706 157.029 75 162 75V78V81H132C123.716 81 117 74.2843 117 66C117 61.0294 112.971 57 108 57C99.7157 57 93 50.2843 93 42C93 37.0294 88.9706 33 84 33C75.7157 33 69 26.2843 69 18C69 13.0294 64.9706 9 60 9C51.7157 9 45 2.28427 45 -6Z" fill="black"/>
</g>
<defs>
<clipPath id="clip0_18_870">
<rect width="72" height="72" fill="white"/>
</clipPath>
</defs>
</svg>
