<svg width="72" height="72" viewBox="0 0 72 72" fill="none" xmlns="http://www.w3.org/2000/svg">
<g clip-path="url(#clip0_18_845)">
<rect width="72" height="72" fill="#14C832"/>
<path fill-rule="evenodd" clip-rule="evenodd" d="M-6 9V12L-12 18L-15 15L-8.60152 8.60152C-10.7553 5.66166 -11.7692 1.84603 -10.9663 -2.16836C-9.79528 -8.0236 -4.96965 -12.4478 0.965029 -13.1072L18 -15L-6 9ZM66 12V9L90 -15L72.965 -13.1072C67.0304 -12.4478 62.2047 -8.0236 61.0337 -2.16836C60.2308 1.84603 61.2447 5.66166 63.3985 8.60152L57 15L60 18L66 12ZM22.7684 38.1472L21 24L39 42L42 39L24 21L38.1472 22.7684C44.0312 23.5039 48.7844 27.922 49.9473 33.7367C50.7547 37.7737 49.7334 41.6106 47.5654 44.5654L54 51L51 54L44.5654 47.5654C41.6106 49.7334 37.7737 50.7547 33.7367 49.9473C27.922 48.7844 23.5039 44.0312 22.7684 38.1472ZM66 81V84L60 90L57 87L63.3985 80.6015C61.2447 77.6617 60.2308 73.846 61.0337 69.8316C62.2047 63.9764 67.0304 59.5522 72.965 58.8928L90 57L66 81ZM-6 84V81L18 57L0.965029 58.8928C-4.96965 59.5522 -9.79528 63.9764 -10.9663 69.8316C-11.7692 73.846 -10.7553 77.6617 -8.60152 80.6015L-15 87L-12 90L-6 84Z" fill="#148C32"/>
</g>
<defs>
<clipPath id="clip0_18_845">
<rect width="72" height="72" fill="white"/>
</clipPath>
</defs>
</svg>
