<svg width="72" height="72" viewBox="0 0 72 72" fill="none" xmlns="http://www.w3.org/2000/svg">
<g clip-path="url(#clip0_18_1013)">
<rect width="72" height="72" fill="#DC6E14"/>
<path fill-rule="evenodd" clip-rule="evenodd" d="M72 21C80.2843 21 87 14.2843 87 6C87 -9 72 -21 72 -21C72 -21 57 -9 57 6C57 14.2843 63.7157 21 72 21ZM72 15C76.9706 15 81 10.9706 81 6C81 1.02944 76.9706 -3 72 -3C67.0294 -3 63 1.02944 63 6C63 10.9706 67.0294 15 72 15ZM36 57C44.2843 57 51 50.2843 51 42C51 27 36 15 36 15C36 15 21 27 21 42C21 50.2843 27.7157 57 36 57ZM36 51C40.9706 51 45 46.9706 45 42C45 37.0294 40.9706 33 36 33C31.0294 33 27 37.0294 27 42C27 46.9706 31.0294 51 36 51ZM72 93C80.2843 93 87 86.2843 87 78C87 63 72 51 72 51C72 51 57 63 57 78C57 86.2843 63.7157 93 72 93ZM72 87C76.9706 87 81 82.9706 81 78C81 73.0294 76.9706 69 72 69C67.0294 69 63 73.0294 63 78C63 82.9706 67.0294 87 72 87ZM15 78C15 86.2843 8.28427 93 0 93C-8.28427 93 -15 86.2843 -15 78C-15 63 0 51 0 51C0 51 15 63 15 78ZM9 78C9 82.9706 4.97056 87 0 87C-4.97056 87 -9 82.9706 -9 78C-9 73.0294 -4.97056 69 0 69C4.97056 69 9 73.0294 9 78ZM15 6C15 14.2843 8.28427 21 0 21C-8.28427 21 -15 14.2843 -15 6C-15 -9 0 -21 0 -21C0 -21 15 -9 15 6ZM9 6C9 10.9706 4.97056 15 0 15C-4.97056 15 -9 10.9706 -9 6C-9 1.02944 -4.97056 -3 0 -3C4.97056 -3 9 1.02944 9 6Z" fill="#A04614"/>
</g>
<defs>
<clipPath id="clip0_18_1013">
<rect width="72" height="72" fill="white"/>
</clipPath>
</defs>
</svg>
