<svg width="72" height="72" viewBox="0 0 72 72" fill="none" xmlns="http://www.w3.org/2000/svg">
<g clip-path="url(#clip0_18_1037)">
<rect width="72" height="72" fill="#FFAFD2"/>
<path fill-rule="evenodd" clip-rule="evenodd" d="M-15.5147 2.48534L0 18L15.5147 2.48529C17.106 0.893999 18 -1.26426 18 -3.5147C18 -11.0743 8.86015 -14.8601 3.51474 -9.51467L0 -5.99991L-3.51473 -9.51465C-8.86015 -14.8601 -18 -11.0742 -18 -3.51466C-18 -1.26422 -17.106 0.894045 -15.5147 2.48534ZM72 18L56.4853 2.48534C54.894 0.894045 54 -1.26422 54 -3.51466C54 -11.0742 63.1399 -14.8601 68.4853 -9.51465L72 -5.99991L75.5147 -9.51467C80.8602 -14.8601 90 -11.0743 90 -3.5147C90 -1.26426 89.106 0.893999 87.5147 2.48529L72 18ZM36 54L20.4853 38.4853C18.894 36.894 18 34.7358 18 32.4853C18 24.9258 27.1399 21.1399 32.4853 26.4854L36 30.0001L39.5147 26.4853C44.8602 21.1399 54 24.9257 54 32.4853C54 34.7357 53.106 36.894 51.5147 38.4853L36 54ZM0 90L-15.5147 74.4854C-17.106 72.8941 -18 70.7358 -18 68.4853C-18 60.9258 -8.86015 57.1399 -3.51473 62.4854L0 66.0001L3.51474 62.4853C8.86015 57.1399 18 60.9257 18 68.4853C18 70.7357 17.106 72.894 15.5147 74.4853L0 90ZM56.4853 74.4854L72 90L87.5147 74.4853C89.106 72.894 90 70.7357 90 68.4853C90 60.9257 80.8602 57.1399 75.5147 62.4853L72 66.0001L68.4853 62.4854C63.1399 57.1399 54 60.9258 54 68.4853C54 70.7358 54.894 72.8941 56.4853 74.4854Z" fill="#DC64A0"/>
</g>
<defs>
<clipPath id="clip0_18_1037">
<rect width="72" height="72" fill="white"/>
</clipPath>
</defs>
</svg>
