<svg width="72" height="72" viewBox="0 0 72 72" fill="none" xmlns="http://www.w3.org/2000/svg">
<g clip-path="url(#clip0_18_1091)">
<rect width="72" height="72" fill="#5A0096"/>
<path fill-rule="evenodd" clip-rule="evenodd" d="M2.85306 -12.2189C1.95501 -14.9828 -1.95522 -14.9828 -2.85328 -12.2189L-4.04136 -8.56236C-4.44298 -7.3263 -5.59485 -6.48941 -6.89453 -6.48941H-10.7392C-13.6454 -6.48941 -14.8537 -2.77057 -12.5026 -1.06236L-9.39216 1.1975C-8.3407 1.96144 -7.90072 3.31554 -8.30235 4.55161L-9.49043 8.20815C-10.3885 10.9721 -7.22504 13.2705 -4.8739 11.5622L-1.76346 9.30238C-0.712 8.53845 0.711787 8.53845 1.76325 9.30238L4.87369 11.5622C7.22483 13.2705 10.3883 10.9721 9.49021 8.20814L8.30213 4.55161C7.90051 3.31554 8.34048 1.96144 9.39195 1.1975L12.5024 -1.06236C14.8535 -2.77057 13.6452 -6.48941 10.739 -6.48941H6.89432C5.59464 -6.48941 4.44277 -7.3263 4.04115 -8.56236L2.85306 -12.2189ZM69.1467 -12.2189C70.0448 -14.9828 73.955 -14.9828 74.8531 -12.2189L76.0412 -8.56235C76.4428 -7.32628 77.5947 -6.4894 78.8943 -6.4894H82.739C85.6452 -6.4894 86.8535 -2.77056 84.5024 -1.06235L81.392 1.19751C80.3405 1.96145 79.9005 3.31555 80.3021 4.55162L81.4902 8.20815C82.3883 10.9721 79.2248 13.2705 76.8737 11.5623L73.7633 9.30239C72.7118 8.53846 71.288 8.53846 70.2365 9.30239L67.1261 11.5623C64.775 13.2705 61.6115 10.9721 62.5096 8.20816L63.6977 4.55162C64.0993 3.31555 63.6593 1.96145 62.6079 1.19752L59.4974 -1.06235C57.1463 -2.77055 58.3546 -6.4894 61.2608 -6.4894H65.1055C66.4052 -6.4894 67.557 -7.32628 67.9587 -8.56235L69.1467 -12.2189ZM33.1468 54.2189C34.0449 56.9828 37.9551 56.9828 38.8532 54.2189L41.3883 46.4164C41.79 45.1804 42.9418 44.3435 44.2415 44.3435H52.4455C55.3516 44.3435 56.56 40.6246 54.2088 38.9164L47.5717 34.0942C46.5202 33.3303 46.0802 31.9762 46.4819 30.7401L49.017 22.9377C49.9151 20.1738 46.7516 17.8754 44.4005 19.5836L37.7634 24.4058C36.7119 25.1697 35.2881 25.1697 34.2366 24.4058L27.5995 19.5836C25.2484 17.8754 22.0849 20.1738 22.983 22.9377L25.5181 30.7401C25.9198 31.9762 25.4798 33.3303 24.4283 34.0942L17.7912 38.9164C15.44 40.6246 16.6484 44.3435 19.5545 44.3435H27.7585C29.0582 44.3435 30.21 45.1803 30.6117 46.4164L33.1468 54.2189ZM-2.85329 59.7811C-1.95524 57.0172 1.95499 57.0172 2.85305 59.7811L4.04113 63.4376C4.44275 64.6737 5.59462 65.5106 6.8943 65.5106H10.739C13.6452 65.5106 14.8535 69.2294 12.5024 70.9376L9.39193 73.1975C8.34047 73.9614 7.90049 75.3155 8.30212 76.5516L9.4902 80.2081C10.3883 82.9721 7.22482 85.2704 4.87367 83.5622L1.76323 81.3024C0.711772 80.5384 -0.712015 80.5384 -1.76348 81.3024L-4.87391 83.5622C-7.22506 85.2704 -10.3885 82.9721 -9.49044 80.2081L-8.30236 76.5516C-7.90074 75.3155 -8.34071 73.9614 -9.39217 73.1975L-12.5026 70.9376C-14.8538 69.2294 -13.6454 65.5106 -10.7393 65.5106H-6.89454C-5.59487 65.5106 -4.443 64.6737 -4.04137 63.4376L-2.85329 59.7811ZM74.8531 59.7811C73.955 57.0172 70.0448 57.0172 69.1467 59.7811L67.9586 63.4376C67.557 64.6737 66.4051 65.5106 65.1055 65.5106H61.2607C58.3546 65.5106 57.1462 69.2294 59.4974 70.9376L62.6078 73.1975C63.6593 73.9614 64.0993 75.3155 63.6976 76.5516L62.5096 80.2081C61.6115 82.9721 64.7749 85.2704 67.1261 83.5622L70.2365 81.3024C71.288 80.5384 72.7118 80.5384 73.7632 81.3024L76.8737 83.5622C79.2248 85.2704 82.3883 82.9721 81.4902 80.2081L80.3021 76.5516C79.9005 75.3155 80.3405 73.9614 81.3919 73.1975L84.5024 70.9376C86.8535 69.2294 85.6452 65.5106 82.739 65.5106H78.8943C77.5946 65.5106 76.4427 64.6737 76.0411 63.4376L74.8531 59.7811Z" fill="#8C64C8"/>
</g>
<defs>
<clipPath id="clip0_18_1091">
<rect width="72" height="72" fill="white"/>
</clipPath>
</defs>
</svg>
