<svg width="72" height="72" viewBox="0 0 72 72" fill="none" xmlns="http://www.w3.org/2000/svg">
<g clip-path="url(#clip0_18_1044)">
<path fill-rule="evenodd" clip-rule="evenodd" d="M56.519 5.40502L57.481 0.594982C59.0543 -7.27141 56.5932 -15.4035 50.9225 -21.0775C56.5965 -15.4068 64.7286 -12.9457 72.595 -14.519L77.405 -15.481C85.2737 -17.0547 93.4082 -14.5918 99.0824 -8.91762L102 -5.99999L84 12L66 30L48 48L30 66L12 84L-6 102L-8.91763 99.0824C-14.5918 93.4082 -17.0547 85.2737 -15.481 77.405L-14.519 72.595C-12.9455 64.7277 -15.4073 56.5947 -21.0793 50.9207L-21.079 50.921C-15.405 56.5928 -7.27213 59.0544 0.594982 57.481L5.40502 56.519C13.2737 54.9453 21.4082 57.4082 27.0824 63.0824C21.4082 57.4082 18.9453 49.2737 20.519 41.405L21.481 36.595C23.0547 28.7263 20.5918 20.5918 14.9176 14.9176L14.9203 14.9203L14.921 14.921C20.595 20.5928 28.7279 23.0544 36.595 21.481L41.405 20.519C49.271 18.9458 57.4028 21.4066 63.0767 27.0767C57.4066 21.4028 54.9458 13.271 56.519 5.40502ZM-21.0793 50.9207C-21.0803 50.9197 -21.0814 50.9186 -21.0824 50.9176L-21.0797 50.9203L-21.0793 50.9207ZM-15.481 5.40502L-14.519 0.594982C-12.9455 -7.27238 -15.4074 -15.4056 -21.0796 -21.0796L-21.079 -21.079C-15.405 -15.4072 -7.27213 -12.9456 0.594982 -14.519L5.40502 -15.481C13.2737 -17.0547 21.4082 -14.5918 27.0824 -8.91762L30 -5.99999L12 12L-6 30L-8.91763 27.0824C-14.5918 21.4082 -17.0547 13.2737 -15.481 5.40502ZM-21.0796 -21.0796C-21.0798 -21.0798 -21.0801 -21.0801 -21.0803 -21.0803L-21.0797 -21.0797L-21.0796 -21.0796ZM57.481 72.595L56.519 77.405C54.9453 85.2737 57.4082 93.4082 63.0824 99.0824L66 102L84 84L102 66L99.0824 63.0824C93.4082 57.4082 85.2737 54.9453 77.405 56.519L72.595 57.481C64.7279 59.0544 56.595 56.5928 50.921 50.921L50.9203 50.9203L50.9176 50.9176C56.5918 56.5918 59.0547 64.7263 57.481 72.595Z" fill="black"/>
</g>
<defs>
<clipPath id="clip0_18_1044">
<rect width="72" height="72" fill="white"/>
</clipPath>
</defs>
</svg>
