<svg width="72" height="72" viewBox="0 0 72 72" fill="none" xmlns="http://www.w3.org/2000/svg">
<g clip-path="url(#clip0_18_959)">
<rect width="72" height="72" fill="#DCB414"/>
<path fill-rule="evenodd" clip-rule="evenodd" d="M54 -3C54 1.1504 56.8094 4.64464 60.6303 5.68476C60.2235 6.71073 60 7.82926 60 9C60 13.9706 64.0294 18 69 18C73.1504 18 76.6446 15.1906 77.6848 11.3697C78.7107 11.7765 79.8293 12 81 12C85.9706 12 90 7.97056 90 3C90 -1.1504 87.1906 -4.64464 83.3697 -5.68476C83.7765 -6.71072 84 -7.82926 84 -9C84 -13.9706 79.9706 -18 75 -18C70.8496 -18 67.3554 -15.1906 66.3152 -11.3697C65.2893 -11.7765 64.1707 -12 63 -12C58.0294 -12 54 -7.97056 54 -3ZM72 9C67.0294 9 63 4.97056 63 0C63 -4.97056 67.0294 -9 72 -9C76.9706 -9 81 -4.97056 81 0C81 4.97056 76.9706 9 72 9ZM41.5875 22.0795C41.8784 23.1651 41.9975 24.4056 41.9522 25.6904C43.0422 25.0088 44.1762 24.4917 45.2617 24.2008C50.0629 22.9144 62.08 29.0119 62.08 29.0119C62.08 29.0119 54.7217 40.301 49.9205 41.5875C48.8349 41.8784 47.5944 41.9975 46.3095 41.9522C46.9912 43.0423 47.5083 44.1762 47.7991 45.2617C49.0856 50.0629 42.9881 62.08 42.9881 62.08C42.9881 62.08 31.699 54.7217 30.4125 49.9205C30.1216 48.8349 30.0025 47.5944 30.0478 46.3095C28.9577 46.9912 27.8238 47.5083 26.7382 47.7992C21.937 49.0856 9.91998 42.9881 9.91998 42.9881C9.91998 42.9881 17.2783 31.699 22.0795 30.4125C23.1651 30.1216 24.4056 30.0025 25.6904 30.0478C25.0088 28.9577 24.4917 27.8238 24.2008 26.7383C22.9144 21.9371 29.0119 9.92 29.0119 9.92C29.0119 9.92 40.301 17.2783 41.5875 22.0795ZM36 45C40.9706 45 45 40.9706 45 36C45 31.0294 40.9706 27 36 27C31.0294 27 27 31.0294 27 36C27 40.9706 31.0294 45 36 45ZM54 69C54 73.1504 56.8094 76.6446 60.6303 77.6848C60.2235 78.7107 60 79.8293 60 81C60 85.9706 64.0294 90 69 90C73.1504 90 76.6446 87.1906 77.6848 83.3697C78.7107 83.7765 79.8293 84 81 84C85.9706 84 90 79.9706 90 75C90 70.8496 87.1906 67.3554 83.3697 66.3152C83.7765 65.2893 84 64.1707 84 63C84 58.0294 79.9706 54 75 54C70.8496 54 67.3554 56.8094 66.3152 60.6303C65.2893 60.2235 64.1707 60 63 60C58.0294 60 54 64.0294 54 69ZM72 81C67.0294 81 63 76.9706 63 72C63 67.0294 67.0294 63 72 63C76.9706 63 81 67.0294 81 72C81 76.9706 76.9706 81 72 81ZM-11.3697 77.6848C-15.1906 76.6446 -18 73.1504 -18 69C-18 64.0294 -13.9706 60 -9 60C-7.82926 60 -6.71072 60.2235 -5.68476 60.6303C-4.64464 56.8094 -1.1504 54 3 54C7.97056 54 12 58.0294 12 63C12 64.1707 11.7765 65.2893 11.3697 66.3152C15.1906 67.3554 18 70.8496 18 75C18 79.9706 13.9706 84 9 84C7.82926 84 6.71072 83.7765 5.68476 83.3697C4.64464 87.1906 1.1504 90 -3 90C-7.97056 90 -12 85.9706 -12 81C-12 79.8293 -11.7765 78.7107 -11.3697 77.6848ZM-9 72C-9 76.9706 -4.97056 81 0 81C4.97056 81 9 76.9706 9 72C9 67.0294 4.97056 63 0 63C-4.97056 63 -9 67.0294 -9 72ZM-11.3697 5.68476C-15.1906 4.64464 -18 1.1504 -18 -3C-18 -7.97056 -13.9706 -12 -9 -12C-7.82926 -12 -6.71072 -11.7765 -5.68476 -11.3697C-4.64464 -15.1906 -1.1504 -18 3 -18C7.97056 -18 12 -13.9706 12 -9C12 -7.82926 11.7765 -6.71072 11.3697 -5.68476C15.1906 -4.64464 18 -1.1504 18 3C18 7.97056 13.9706 12 9 12C7.82926 12 6.71072 11.7765 5.68476 11.3697C4.64464 15.1906 1.1504 18 -3 18C-7.97056 18 -12 13.9706 -12 9C-12 7.82926 -11.7765 6.71073 -11.3697 5.68476ZM-9 0C-9 4.97056 -4.97056 9 0 9C4.97056 9 9 4.97056 9 0C9 -4.97056 4.97056 -9 0 -9C-4.97056 -9 -9 -4.97056 -9 0Z" fill="#AA7800"/>
</g>
<defs>
<clipPath id="clip0_18_959">
<rect width="72" height="72" fill="white"/>
</clipPath>
</defs>
</svg>
